0, 0, Header, 1, 2, 480
1, 0, Start_track
1, 0, Time_signature, 1, 3, 24, 8
1, 0, Tempo, 431654
1, 0, Key_signature, 0, "major"
1, 0, MIDI_port, 0
1, 0, Control_c, 0, 121, 0
1, 0, Program_c, 0, 0
1, 0, Control_c, 0, 7, 100
1, 0, Control_c, 0, 10, 64
1, 0, Control_c, 0, 91, 0
1, 0, Control_c, 0, 93, 0
1, 240, Time_signature, 4, 2, 24, 8
1, 3120, Note_on_c, 0, 69, 80
1, 3239, Note_off_c, 0, 69, 0
1, 3240, Note_on_c, 0, 71, 80
1, 3359, Note_off_c, 0, 71, 0
1, 3360, Note_on_c, 0, 72, 80
1, 3587, Note_off_c, 0, 72, 0
1, 3600, Note_on_c, 0, 71, 80
1, 3875, Note_off_c, 0, 71, 0
1, 3888, Note_on_c, 0, 67, 80
1, 7261, Note_off_c, 0, 67, 0
1, 7440, Note_on_c, 0, 68, 80
1, 7895, Note_off_c, 0, 68, 0
1, 7920, Note_on_c, 0, 69, 80
1, 8195, Note_off_c, 0, 69, 0
1, 8208, Note_on_c, 0, 60, 80
1, 8423, Note_off_c, 0, 60, 0
1, 8688, Note_on_c, 0, 60, 80
1, 9781, Note_off_c, 0, 60, 0
1, 10800, Note_on_c, 0, 57, 80
1, 10859, Note_off_c, 0, 57, 0
1, 10860, Note_on_c, 0, 58, 80
1, 10919, Note_off_c, 0, 58, 0
1, 10920, Note_on_c, 0, 59, 80
1, 11057, Note_off_c, 0, 59, 0
1, 11088, Note_on_c, 0, 60, 80
1, 11269, Note_off_c, 0, 60, 0
1, 11280, Note_on_c, 0, 62, 80
1, 11555, Note_off_c, 0, 62, 0
1, 11568, Note_on_c, 0, 60, 80
1, 12025, Note_off_c, 0, 60, 0
1, 12048, Note_on_c, 0, 52, 80
1, 12048, Note_on_c, 0, 56, 80
1, 12048, Note_on_c, 0, 58, 80
1, 12685, Note_off_c, 0, 52, 0
1, 12685, Note_off_c, 0, 56, 0
1, 12685, Note_off_c, 0, 58, 0
1, 12720, Note_on_c, 0, 50, 80
1, 12720, Note_on_c, 0, 56, 80
1, 12720, Note_on_c, 0, 59, 80
1, 12959, Note_off_c, 0, 50, 0
1, 12959, Note_off_c, 0, 56, 0
1, 12959, Note_off_c, 0, 59, 0
1, 13680, Note_on_c, 0, 62, 80
1, 13751, Note_off_c, 0, 62, 0
1, 13752, Note_on_c, 0, 72, 80
1, 14137, Note_off_c, 0, 72, 0
1, 14160, Note_on_c, 0, 71, 80
1, 14615, Note_off_c, 0, 71, 0
1, 14640, Note_on_c, 0, 69, 80
1, 15095, Note_off_c, 0, 69, 0
1, 15120, Note_on_c, 0, 67, 80
1, 15395, Note_off_c, 0, 67, 0
1, 15408, Note_on_c, 0, 65, 80
1, 16316, Note_off_c, 0, 65, 0
1, 16368, Note_on_c, 0, 67, 80
1, 16549, Note_off_c, 0, 67, 0
1, 16560, Note_on_c, 0, 69, 80
1, 17015, Note_off_c, 0, 69, 0
1, 17040, Note_on_c, 0, 72, 80
1, 17495, Note_off_c, 0, 72, 0
1, 17520, Note_on_c, 0, 69, 80
1, 17639, Note_off_c, 0, 69, 0
1, 17640, Note_on_c, 0, 70, 80
1, 17759, Note_off_c, 0, 70, 0
1, 17760, Note_on_c, 0, 71, 80
1, 17987, Note_off_c, 0, 71, 0
1, 18000, Note_on_c, 0, 69, 80
1, 18455, Note_off_c, 0, 69, 0
1, 18480, Note_on_c, 0, 67, 80
1, 18935, Note_off_c, 0, 67, 0
1, 18960, Note_on_c, 0, 65, 80
1, 19235, Note_off_c, 0, 65, 0
1, 19248, Note_on_c, 0, 64, 80
1, 21253, Note_off_c, 0, 64, 0
1, 21648, Note_on_c, 0, 69, 80
1, 21829, Note_off_c, 0, 69, 0
1, 21840, Note_on_c, 0, 67, 80
1, 22295, Note_off_c, 0, 67, 0
1, 22320, Note_on_c, 0, 65, 80
1, 22775, Note_off_c, 0, 65, 0
1, 22800, Note_on_c, 0, 64, 80
1, 23075, Note_off_c, 0, 64, 0
1, 23088, Note_on_c, 0, 62, 80
1, 23996, Note_off_c, 0, 62, 0
1, 24048, Note_on_c, 0, 64, 80
1, 24229, Note_off_c, 0, 64, 0
1, 24240, Note_on_c, 0, 65, 80
1, 24695, Note_off_c, 0, 65, 0
1, 24720, Note_on_c, 0, 69, 80
1, 24995, Note_off_c, 0, 69, 0
1, 25008, Note_on_c, 0, 68, 80
1, 25645, Note_off_c, 0, 68, 0
1, 25680, Note_on_c, 0, 65, 80
1, 26135, Note_off_c, 0, 65, 0
1, 26160, Note_on_c, 0, 64, 80
1, 26223, Note_off_c, 0, 64, 0
1, 26228, Note_on_c, 0, 65, 80
1, 26291, Note_off_c, 0, 65, 0
1, 26297, Note_on_c, 0, 64, 80
1, 26620, Note_off_c, 0, 64, 0
1, 26640, Note_on_c, 0, 62, 80
1, 26915, Note_off_c, 0, 62, 0
1, 26928, Note_on_c, 0, 60, 80
1, 28477, Note_off_c, 0, 60, 0
1, 28848, Note_on_c, 0, 61, 80
1, 29029, Note_off_c, 0, 61, 0
1, 29040, Note_on_c, 0, 62, 80
1, 29315, Note_off_c, 0, 62, 0
1, 29328, Note_on_c, 0, 69, 80
1, 29509, Note_off_c, 0, 69, 0
1, 29520, Note_on_c, 0, 69, 80
1, 30431, Note_off_c, 0, 69, 0
1, 31920, Note_on_c, 0, 69, 80
1, 31991, Note_off_c, 0, 69, 0
1, 31992, Note_on_c, 0, 72, 80
1, 32377, Note_off_c, 0, 72, 0
1, 32400, Note_on_c, 0, 71, 80
1, 32675, Note_off_c, 0, 71, 0
1, 32688, Note_on_c, 0, 64, 80
1, 32688, Note_on_c, 0, 67, 80
1, 35149, Note_off_c, 0, 64, 0
1, 35149, Note_off_c, 0, 67, 0
1, 36528, Note_on_c, 0, 59, 80
1, 36709, Note_off_c, 0, 59, 0
1, 36720, Note_on_c, 0, 60, 80
1, 36995, Note_off_c, 0, 60, 0
1, 37008, Note_on_c, 0, 65, 80
1, 37460, Note_off_c, 0, 65, 0
1, 37488, Note_on_c, 0, 65, 80
1, 38581, Note_off_c, 0, 65, 0
1, 39408, Note_on_c, 0, 60, 80
1, 39589, Note_off_c, 0, 60, 0
1, 39600, Note_on_c, 0, 65, 80
1, 39600, Note_on_c, 0, 69, 80
1, 39875, Note_off_c, 0, 65, 0
1, 39875, Note_off_c, 0, 69, 0
1, 39888, Note_on_c, 0, 59, 80
1, 40069, Note_off_c, 0, 59, 0
1, 40080, Note_on_c, 0, 64, 80
1, 40080, Note_on_c, 0, 67, 80
1, 40355, Note_off_c, 0, 64, 0
1, 40355, Note_off_c, 0, 67, 0
1, 40368, Note_on_c, 0, 57, 80
1, 40549, Note_off_c, 0, 57, 0
1, 40560, Note_on_c, 0, 62, 80
1, 40560, Note_on_c, 0, 65, 80
1, 40799, Note_off_c, 0, 62, 0
1, 40799, Note_off_c, 0, 65, 0
1, 41328, Note_on_c, 0, 55, 80
1, 41328, Note_on_c, 0, 59, 80
1, 41328, Note_on_c, 0, 64, 80
1, 42421, Note_off_c, 0, 55, 0
1, 42421, Note_off_c, 0, 59, 0
1, 42421, Note_off_c, 0, 64, 0
1, 42480, Note_on_c, 0, 62, 80
1, 42480, Note_on_c, 0, 69, 80
1, 42935, Note_off_c, 0, 62, 0
1, 42935, Note_off_c, 0, 69, 0
1, 43200, Note_on_c, 0, 62, 80
1, 43275, Note_off_c, 0, 62, 0
1, 43280, Note_on_c, 0, 65, 80
1, 43355, Note_off_c, 0, 65, 0
1, 43360, Note_on_c, 0, 69, 80
1, 43435, Note_off_c, 0, 69, 0
1, 43440, Note_on_c, 0, 62, 80
1, 43440, Note_on_c, 0, 68, 80
1, 43743, Note_off_c, 0, 62, 0
1, 43743, Note_off_c, 0, 68, 0
1, 43760, Note_on_c, 0, 69, 80
1, 44063, Note_off_c, 0, 69, 0
1, 44080, Note_on_c, 0, 71, 80
1, 44383, Note_off_c, 0, 71, 0
1, 44400, Note_on_c, 0, 64, 80
1, 44400, Note_on_c, 0, 72, 80
1, 44675, Note_off_c, 0, 64, 0
1, 44675, Note_off_c, 0, 72, 0
1, 44688, Note_on_c, 0, 64, 80
1, 44688, Note_on_c, 0, 72, 80
1, 44869, Note_off_c, 0, 64, 0
1, 44869, Note_off_c, 0, 72, 0
1, 44880, Note_on_c, 0, 62, 80
1, 44880, Note_on_c, 0, 71, 80
1, 45335, Note_off_c, 0, 62, 0
1, 45335, Note_off_c, 0, 71, 0
1, 45360, Note_on_c, 0, 60, 80
1, 45360, Note_on_c, 0, 69, 80
1, 45815, Note_off_c, 0, 60, 0
1, 45815, Note_off_c, 0, 69, 0
1, 45840, Note_on_c, 0, 59, 80
1, 45840, Note_on_c, 0, 67, 80
1, 46115, Note_off_c, 0, 59, 0
1, 46115, Note_off_c, 0, 67, 0
1, 46128, Note_on_c, 0, 57, 80
1, 46128, Note_on_c, 0, 65, 80
1, 47036, Note_off_c, 0, 57, 0
1, 47036, Note_off_c, 0, 65, 0
1, 47088, Note_on_c, 0, 67, 80
1, 47269, Note_off_c, 0, 67, 0
1, 47280, Note_on_c, 0, 69, 80
1, 47555, Note_off_c, 0, 69, 0
1, 47568, Note_on_c, 0, 67, 80
1, 47749, Note_off_c, 0, 67, 0
1, 47760, Note_on_c, 0, 72, 80
1, 48215, Note_off_c, 0, 72, 0
1, 48240, Note_on_c, 0, 62, 80
1, 48240, Note_on_c, 0, 71, 80
1, 48515, Note_off_c, 0, 62, 0
1, 48515, Note_off_c, 0, 71, 0
1, 48528, Note_on_c, 0, 62, 80
1, 48528, Note_on_c, 0, 71, 80
1, 48709, Note_off_c, 0, 62, 0
1, 48709, Note_off_c, 0, 71, 0
1, 48720, Note_on_c, 0, 60, 80
1, 48720, Note_on_c, 0, 69, 80
1, 49175, Note_off_c, 0, 60, 0
1, 49175, Note_off_c, 0, 69, 0
1, 49200, Note_on_c, 0, 59, 80
1, 49200, Note_on_c, 0, 67, 80
1, 49655, Note_off_c, 0, 59, 0
1, 49655, Note_off_c, 0, 67, 0
1, 49680, Note_on_c, 0, 57, 80
1, 49680, Note_on_c, 0, 65, 80
1, 49955, Note_off_c, 0, 57, 0
1, 49955, Note_off_c, 0, 65, 0
1, 49968, Note_on_c, 0, 55, 80
1, 49968, Note_on_c, 0, 64, 80
1, 51973, Note_off_c, 0, 55, 0
1, 51973, Note_off_c, 0, 64, 0
1, 52368, Note_on_c, 0, 69, 80
1, 52549, Note_off_c, 0, 69, 0
1, 52560, Note_on_c, 0, 67, 80
1, 53015, Note_off_c, 0, 67, 0
1, 53040, Note_on_c, 0, 65, 80
1, 53495, Note_off_c, 0, 65, 0
1, 53520, Note_on_c, 0, 64, 80
1, 53795, Note_off_c, 0, 64, 0
1, 53808, Note_on_c, 0, 62, 80
1, 54716, Note_off_c, 0, 62, 0
1, 54768, Note_on_c, 0, 64, 80
1, 54949, Note_off_c, 0, 64, 0
1, 54960, Note_on_c, 0, 65, 80
1, 55415, Note_off_c, 0, 65, 0
1, 55440, Note_on_c, 0, 69, 80
1, 55715, Note_off_c, 0, 69, 0
1, 55728, Note_on_c, 0, 68, 80
1, 56185, Note_off_c, 0, 68, 0
1, 56208, Note_on_c, 0, 68, 80
1, 56389, Note_off_c, 0, 68, 0
1, 56400, Note_on_c, 0, 65, 80
1, 56855, Note_off_c, 0, 65, 0
1, 56880, Note_on_c, 0, 64, 80
1, 56943, Note_off_c, 0, 64, 0
1, 56948, Note_on_c, 0, 65, 80
1, 57011, Note_off_c, 0, 65, 0
1, 57017, Note_on_c, 0, 64, 80
1, 57340, Note_off_c, 0, 64, 0
1, 57360, Note_on_c, 0, 62, 80
1, 57635, Note_off_c, 0, 62, 0
1, 57648, Note_on_c, 0, 60, 80
1, 59197, Note_off_c, 0, 60, 0
1, 60048, Note_on_c, 0, 62, 80
1, 60229, Note_off_c, 0, 62, 0
1, 60240, Note_on_c, 0, 60, 80
1, 60515, Note_off_c, 0, 60, 0
1, 60528, Note_on_c, 0, 69, 80
1, 61621, Note_off_c, 0, 69, 0
1, 62640, Note_on_c, 0, 69, 80
1, 62718, Note_off_c, 0, 69, 0
1, 62719, Note_on_c, 0, 70, 80
1, 62797, Note_off_c, 0, 70, 0
1, 62799, Note_on_c, 0, 71, 80
1, 62877, Note_off_c, 0, 71, 0
1, 62880, Note_on_c, 0, 72, 80
1, 63107, Note_off_c, 0, 72, 0
1, 63120, Note_on_c, 0, 71, 80
1, 63395, Note_off_c, 0, 71, 0
1, 63408, Note_on_c, 0, 76, 80
1, 65413, Note_off_c, 0, 76, 0
1, 66960, Note_on_c, 0, 76, 80
1, 67415, Note_off_c, 0, 76, 0
1, 67440, Note_on_c, 0, 76, 80
1, 67715, Note_off_c, 0, 76, 0
1, 67728, Note_on_c, 0, 72, 80
1, 67943, Note_off_c, 0, 72, 0
1, 68208, Note_on_c, 0, 72, 80
1, 69301, Note_off_c, 0, 72, 0
1, 70800, Note_on_c, 0, 75, 80
1, 71255, Note_off_c, 0, 75, 0
1, 71280, Note_on_c, 0, 76, 80
1, 71555, Note_off_c, 0, 76, 0
1, 71568, Note_on_c, 0, 72, 80
1, 71783, Note_off_c, 0, 72, 0
1, 72048, Note_on_c, 0, 72, 80
1, 73141, Note_off_c, 0, 72, 0
1, 73968, Note_on_c, 0, 64, 80
1, 74149, Note_off_c, 0, 64, 0
1, 74160, Note_on_c, 0, 67, 80
1, 74435, Note_off_c, 0, 67, 0
1, 74448, Note_on_c, 0, 69, 80
1, 74629, Note_off_c, 0, 69, 0
1, 74640, Note_on_c, 0, 72, 80
1, 75095, Note_off_c, 0, 72, 0
1, 75120, Note_on_c, 0, 76, 80
1, 75395, Note_off_c, 0, 76, 0
1, 75408, Note_on_c, 0, 72, 80
1, 75623, Note_off_c, 0, 72, 0
1, 75888, Note_on_c, 0, 72, 80
1, 76981, Note_off_c, 0, 72, 0
1, 78000, Note_on_c, 0, 69, 80
1, 78059, Note_off_c, 0, 69, 0
1, 78060, Note_on_c, 0, 70, 80
1, 78119, Note_off_c, 0, 70, 0
1, 78120, Note_on_c, 0, 71, 80
1, 78257, Note_off_c, 0, 71, 0
1, 78288, Note_on_c, 0, 72, 80
1, 78469, Note_off_c, 0, 72, 0
1, 78480, Note_on_c, 0, 74, 80
1, 78755, Note_off_c, 0, 74, 0
1, 78768, Note_on_c, 0, 72, 80
1, 79225, Note_off_c, 0, 72, 0
1, 79248, Note_on_c, 0, 64, 80
1, 79248, Note_on_c, 0, 68, 80
1, 79248, Note_on_c, 0, 70, 80
1, 79885, Note_off_c, 0, 64, 0
1, 79885, Note_off_c, 0, 68, 0
1, 79885, Note_off_c, 0, 70, 0
1, 79920, Note_on_c, 0, 62, 80
1, 79920, Note_on_c, 0, 68, 80
1, 79920, Note_on_c, 0, 71, 80
1, 80159, Note_off_c, 0, 62, 0
1, 80159, Note_off_c, 0, 68, 0
1, 80159, Note_off_c, 0, 71, 0
1, 80688, Note_on_c, 0, 60, 80
1, 80688, Note_on_c, 0, 64, 80
1, 80688, Note_on_c, 0, 67, 80
1, 81325, Note_off_c, 0, 60, 0
1, 81325, Note_off_c, 0, 64, 0
1, 81325, Note_off_c, 0, 67, 0
1, 81360, Note_on_c, 0, 60, 80
1, 81360, Note_on_c, 0, 64, 80
1, 81360, Note_on_c, 0, 66, 80
1, 81599, Note_off_c, 0, 60, 0
1, 81599, Note_off_c, 0, 64, 0
1, 81599, Note_off_c, 0, 66, 0
1, 82128, Note_on_c, 0, 58, 80
1, 82128, Note_on_c, 0, 62, 80
1, 82128, Note_on_c, 0, 65, 80
1, 82765, Note_off_c, 0, 58, 0
1, 82765, Note_off_c, 0, 62, 0
1, 82765, Note_off_c, 0, 65, 0
1, 83280, Note_on_c, 0, 58, 80
1, 83280, Note_on_c, 0, 65, 80
1, 83280, Note_on_c, 0, 69, 80
1, 83519, Note_off_c, 0, 58, 0
1, 83519, Note_off_c, 0, 65, 0
1, 83519, Note_off_c, 0, 69, 0
1, 83760, Note_on_c, 0, 58, 80
1, 83760, Note_on_c, 0, 65, 80
1, 83760, Note_on_c, 0, 69, 80
1, 83999, Note_off_c, 0, 58, 0
1, 83999, Note_off_c, 0, 65, 0
1, 83999, Note_off_c, 0, 69, 0
1, 84720, Note_on_c, 0, 69, 80
1, 84798, Note_off_c, 0, 69, 0
1, 84799, Note_on_c, 0, 70, 80
1, 84877, Note_off_c, 0, 70, 0
1, 84879, Note_on_c, 0, 71, 80
1, 84957, Note_off_c, 0, 71, 0
1, 84960, Note_on_c, 0, 72, 80
1, 85187, Note_off_c, 0, 72, 0
1, 85488, Note_on_c, 0, 71, 80
1, 85669, Note_off_c, 0, 71, 0
1, 85680, Note_on_c, 0, 69, 80
1, 86135, Note_off_c, 0, 69, 0
1, 86448, Note_on_c, 0, 67, 80
1, 86629, Note_off_c, 0, 67, 0
1, 86640, Note_on_c, 0, 65, 80
1, 87095, Note_off_c, 0, 65, 0
1, 87408, Note_on_c, 0, 67, 80
1, 87589, Note_off_c, 0, 67, 0
1, 87600, Note_on_c, 0, 69, 80
1, 88055, Note_off_c, 0, 69, 0
1, 88368, Note_on_c, 0, 72, 80
1, 88549, Note_off_c, 0, 72, 0
1, 88560, Note_on_c, 0, 71, 80
1, 89015, Note_off_c, 0, 71, 0
1, 89328, Note_on_c, 0, 69, 80
1, 89509, Note_off_c, 0, 69, 0
1, 89520, Note_on_c, 0, 67, 80
1, 89975, Note_off_c, 0, 67, 0
1, 90288, Note_on_c, 0, 65, 80
1, 90469, Note_off_c, 0, 65, 0
1, 90480, Note_on_c, 0, 64, 80
1, 90935, Note_off_c, 0, 64, 0
1, 92640, Note_on_c, 0, 71, 80
1, 92711, Note_off_c, 0, 71, 0
1, 92760, Note_on_c, 0, 81, 80
1, 92872, Note_off_c, 0, 81, 0
1, 92880, Note_on_c, 0, 79, 80
1, 93335, Note_off_c, 0, 79, 0
1, 93360, Note_on_c, 0, 77, 80
1, 93635, Note_off_c, 0, 77, 0
1, 93648, Note_on_c, 0, 79, 80
1, 93829, Note_off_c, 0, 79, 0
1, 93840, Note_on_c, 0, 76, 80
1, 94115, Note_off_c, 0, 76, 0
1, 94128, Note_on_c, 0, 74, 80
1, 95036, Note_off_c, 0, 74, 0
1, 95088, Note_on_c, 0, 76, 80
1, 95269, Note_off_c, 0, 76, 0
1, 95280, Note_on_c, 0, 77, 80
1, 95735, Note_off_c, 0, 77, 0
1, 95760, Note_on_c, 0, 81, 80
1, 96035, Note_off_c, 0, 81, 0
1, 96048, Note_on_c, 0, 80, 80
1, 96505, Note_off_c, 0, 80, 0
1, 96528, Note_on_c, 0, 77, 80
1, 96709, Note_off_c, 0, 77, 0
1, 96720, Note_on_c, 0, 76, 80
1, 96995, Note_off_c, 0, 76, 0
1, 97008, Note_on_c, 0, 74, 80
1, 97465, Note_off_c, 0, 74, 0
1, 97488, Note_on_c, 0, 70, 80
1, 97669, Note_off_c, 0, 70, 0
1, 97680, Note_on_c, 0, 71, 80
1, 97955, Note_off_c, 0, 71, 0
1, 97968, Note_on_c, 0, 72, 80
1, 99517, Note_off_c, 0, 72, 0
1, 99888, Note_on_c, 0, 64, 80
1, 100069, Note_off_c, 0, 64, 0
1, 100080, Note_on_c, 0, 72, 80
1, 100231, Note_off_c, 0, 72, 0
1, 100240, Note_on_c, 0, 64, 80
1, 100391, Note_off_c, 0, 64, 0
1, 100400, Note_on_c, 0, 72, 80
1, 100551, Note_off_c, 0, 72, 0
1, 100560, Note_on_c, 0, 71, 80
1, 100711, Note_off_c, 0, 71, 0
1, 100720, Note_on_c, 0, 64, 80
1, 100871, Note_off_c, 0, 64, 0
1, 100880, Note_on_c, 0, 71, 80
1, 101031, Note_off_c, 0, 71, 0
1, 101040, Note_on_c, 0, 69, 80
1, 101191, Note_off_c, 0, 69, 0
1, 101200, Note_on_c, 0, 64, 80
1, 101351, Note_off_c, 0, 64, 0
1, 101360, Note_on_c, 0, 69, 80
1, 101511, Note_off_c, 0, 69, 0
1, 101520, Note_on_c, 0, 59, 80
1, 101520, Note_on_c, 0, 64, 80
1, 101520, Note_on_c, 0, 67, 80
1, 101795, Note_off_c, 0, 59, 0
1, 101795, Note_off_c, 0, 64, 0
1, 101795, Note_off_c, 0, 67, 0
1, 101808, Note_on_c, 0, 57, 80
1, 101808, Note_on_c, 0, 60, 80
1, 101808, Note_on_c, 0, 65, 80
1, 102716, Note_off_c, 0, 57, 0
1, 102716, Note_off_c, 0, 60, 0
1, 102716, Note_off_c, 0, 65, 0
1, 102768, Note_on_c, 0, 67, 80
1, 102949, Note_off_c, 0, 67, 0
1, 102960, Note_on_c, 0, 69, 80
1, 103111, Note_off_c, 0, 69, 0
1, 103120, Note_on_c, 0, 70, 80
1, 103271, Note_off_c, 0, 70, 0
1, 103280, Note_on_c, 0, 71, 80
1, 103431, Note_off_c, 0, 71, 0
1, 103440, Note_on_c, 0, 72, 80
1, 103895, Note_off_c, 0, 72, 0
1, 103920, Note_on_c, 0, 71, 80
1, 104071, Note_off_c, 0, 71, 0
1, 104080, Note_on_c, 0, 72, 80
1, 104231, Note_off_c, 0, 72, 0
1, 104240, Note_on_c, 0, 71, 80
1, 104391, Note_off_c, 0, 71, 0
1, 104400, Note_on_c, 0, 69, 80
1, 104551, Note_off_c, 0, 69, 0
1, 104560, Note_on_c, 0, 71, 80
1, 104711, Note_off_c, 0, 71, 0
1, 104720, Note_on_c, 0, 69, 80
1, 104871, Note_off_c, 0, 69, 0
1, 104880, Note_on_c, 0, 67, 80
1, 105119, Note_off_c, 0, 67, 0
1, 105360, Note_on_c, 0, 56, 80
1, 105360, Note_on_c, 0, 59, 80
1, 105360, Note_on_c, 0, 65, 80
1, 105635, Note_off_c, 0, 56, 0
1, 105635, Note_off_c, 0, 59, 0
1, 105635, Note_off_c, 0, 65, 0
1, 105648, Note_on_c, 0, 55, 80
1, 105648, Note_on_c, 0, 59, 80
1, 105648, Note_on_c, 0, 64, 80
1, 106556, Note_off_c, 0, 55, 0
1, 106556, Note_off_c, 0, 59, 0
1, 106556, Note_off_c, 0, 64, 0
1, 106608, Note_on_c, 0, 58, 80
1, 106789, Note_off_c, 0, 58, 0
1, 107088, Note_on_c, 0, 58, 80
1, 107269, Note_off_c, 0, 58, 0
1, 107280, Note_on_c, 0, 57, 80
1, 107735, Note_off_c, 0, 57, 0
1, 108048, Note_on_c, 0, 60, 80
1, 108048, Note_on_c, 0, 64, 80
1, 108048, Note_on_c, 0, 69, 80
1, 108229, Note_off_c, 0, 60, 0
1, 108229, Note_off_c, 0, 64, 0
1, 108229, Note_off_c, 0, 69, 0
1, 108240, Note_on_c, 0, 60, 80
1, 108240, Note_on_c, 0, 64, 80
1, 108240, Note_on_c, 0, 67, 80
1, 108695, Note_off_c, 0, 60, 0
1, 108695, Note_off_c, 0, 64, 0
1, 108695, Note_off_c, 0, 67, 0
1, 108720, Note_on_c, 0, 60, 80
1, 108720, Note_on_c, 0, 64, 80
1, 108720, Note_on_c, 0, 65, 80
1, 109175, Note_off_c, 0, 60, 0
1, 109175, Note_off_c, 0, 64, 0
1, 109175, Note_off_c, 0, 65, 0
1, 109200, Note_on_c, 0, 60, 80
1, 109200, Note_on_c, 0, 64, 80
1, 109475, Note_off_c, 0, 60, 0
1, 109475, Note_off_c, 0, 64, 0
1, 109488, Note_on_c, 0, 56, 80
1, 109488, Note_on_c, 0, 62, 80
1, 110396, Note_off_c, 0, 56, 0
1, 110396, Note_off_c, 0, 62, 0
1, 110448, Note_on_c, 0, 60, 80
1, 110448, Note_on_c, 0, 64, 80
1, 110629, Note_off_c, 0, 60, 0
1, 110629, Note_off_c, 0, 64, 0
1, 110640, Note_on_c, 0, 62, 80
1, 110640, Note_on_c, 0, 65, 80
1, 111095, Note_off_c, 0, 62, 0
1, 111095, Note_off_c, 0, 65, 0
1, 111120, Note_on_c, 0, 60, 80
1, 111120, Note_on_c, 0, 64, 80
1, 111120, Note_on_c, 0, 69, 80
1, 111395, Note_off_c, 0, 60, 0
1, 111395, Note_off_c, 0, 64, 0
1, 111395, Note_off_c, 0, 69, 0
1, 111408, Note_on_c, 0, 62, 80
1, 111408, Note_on_c, 0, 68, 80
1, 111589, Note_off_c, 0, 62, 0
1, 111589, Note_off_c, 0, 68, 0
1, 112080, Note_on_c, 0, 56, 80
1, 112080, Note_on_c, 0, 62, 80
1, 112080, Note_on_c, 0, 65, 80
1, 112535, Note_off_c, 0, 56, 0
1, 112535, Note_off_c, 0, 62, 0
1, 112535, Note_off_c, 0, 65, 0
1, 112560, Note_on_c, 0, 55, 80
1, 112560, Note_on_c, 0, 61, 80
1, 112560, Note_on_c, 0, 64, 80
1, 113015, Note_off_c, 0, 55, 0
1, 113015, Note_off_c, 0, 61, 0
1, 113015, Note_off_c, 0, 64, 0
1, 113040, Note_on_c, 0, 61, 80
1, 113111, Note_off_c, 0, 61, 0
1, 113112, Note_on_c, 0, 62, 80
1, 113303, Note_off_c, 0, 62, 0
1, 113328, Note_on_c, 0, 60, 80
1, 114236, Note_off_c, 0, 60, 0
1, 115728, Note_on_c, 0, 60, 80
1, 115909, Note_off_c, 0, 60, 0
1, 115920, Note_on_c, 0, 68, 80
1, 116195, Note_off_c, 0, 68, 0
1, 116208, Note_on_c, 0, 60, 80
1, 116208, Note_on_c, 0, 63, 80
1, 116208, Note_on_c, 0, 69, 80
1, 117301, Note_off_c, 0, 60, 0
1, 117301, Note_off_c, 0, 63, 0
1, 117301, Note_off_c, 0, 69, 0
1, 117840, Note_on_c, 0, 68, 80
1, 118115, Note_off_c, 0, 68, 0
1, 118128, Note_on_c, 0, 69, 80
1, 118309, Note_off_c, 0, 69, 0
1, 118320, Note_on_c, 0, 63, 80
1, 118320, Note_on_c, 0, 69, 80
1, 118320, Note_on_c, 0, 72, 80
1, 118775, Note_off_c, 0, 63, 0
1, 118775, Note_off_c, 0, 69, 0
1, 118775, Note_off_c, 0, 72, 0
1, 118800, Note_on_c, 0, 62, 80
1, 118800, Note_on_c, 0, 68, 80
1, 118800, Note_on_c, 0, 71, 80
1, 119075, Note_off_c, 0, 62, 0
1, 119075, Note_off_c, 0, 68, 0
1, 119075, Note_off_c, 0, 71, 0
1, 119088, Note_on_c, 0, 67, 80
1, 119088, Note_on_c, 0, 71, 80
1, 119088, Note_on_c, 0, 76, 80
1, 120181, Note_off_c, 0, 67, 0
1, 120181, Note_off_c, 0, 71, 0
1, 120181, Note_off_c, 0, 76, 0
1, 121008, Note_on_c, 0, 69, 80
1, 121465, Note_off_c, 0, 69, 0
1, 121488, Note_on_c, 0, 71, 80
1, 121669, Note_off_c, 0, 71, 0
1, 121680, Note_on_c, 0, 73, 80
1, 122135, Note_off_c, 0, 73, 0
1, 122640, Note_on_c, 0, 67, 80
1, 122640, Note_on_c, 0, 70, 80
1, 122640, Note_on_c, 0, 76, 80
1, 123095, Note_off_c, 0, 67, 0
1, 123095, Note_off_c, 0, 70, 0
1, 123095, Note_off_c, 0, 76, 0
1, 123120, Note_on_c, 0, 76, 80
1, 123395, Note_off_c, 0, 76, 0
1, 123408, Note_on_c, 0, 72, 80
1, 123623, Note_off_c, 0, 72, 0
1, 123888, Note_on_c, 0, 69, 80
1, 123888, Note_on_c, 0, 72, 80
1, 124981, Note_off_c, 0, 69, 0
1, 124981, Note_off_c, 0, 72, 0
1, 125328, Note_on_c, 0, 66, 80
1, 125509, Note_off_c, 0, 66, 0
1, 125520, Note_on_c, 0, 69, 80
1, 125795, Note_off_c, 0, 69, 0
1, 125808, Note_on_c, 0, 72, 80
1, 125989, Note_off_c, 0, 72, 0
1, 126000, Note_on_c, 0, 69, 80
1, 126000, Note_on_c, 0, 75, 80
1, 126275, Note_off_c, 0, 69, 0
1, 126275, Note_off_c, 0, 75, 0
1, 126480, Note_on_c, 0, 65, 80
1, 126480, Note_on_c, 0, 75, 80
1, 126755, Note_off_c, 0, 65, 0
1, 126755, Note_off_c, 0, 75, 0
1, 126960, Note_on_c, 0, 76, 80
1, 127235, Note_off_c, 0, 76, 0
1, 127248, Note_on_c, 0, 72, 80
1, 127463, Note_off_c, 0, 72, 0
1, 127728, Note_on_c, 0, 67, 80
1, 127728, Note_on_c, 0, 72, 80
1, 128821, Note_off_c, 0, 67, 0
1, 128821, Note_off_c, 0, 72, 0
1, 129648, Note_on_c, 0, 64, 80
1, 129829, Note_off_c, 0, 64, 0
1, 129840, Note_on_c, 0, 67, 80
1, 130115, Note_off_c, 0, 67, 0
1, 130128, Note_on_c, 0, 69, 80
1, 130309, Note_off_c, 0, 69, 0
1, 130320, Note_on_c, 0, 72, 80
1, 130775, Note_off_c, 0, 72, 0
1, 130800, Note_on_c, 0, 65, 80
1, 130842, Note_on_c, 0, 69, 80
1, 130884, Note_on_c, 0, 72, 80
1, 130926, Note_on_c, 0, 76, 80
1, 131039, Note_off_c, 0, 65, 0
1, 131039, Note_off_c, 0, 69, 0
1, 131039, Note_off_c, 0, 72, 0
1, 131039, Note_off_c, 0, 76, 0
1, 131088, Note_on_c, 0, 72, 80
1, 131303, Note_off_c, 0, 72, 0
1, 131568, Note_on_c, 0, 65, 80
1, 131568, Note_on_c, 0, 72, 80
1, 132205, Note_off_c, 0, 65, 0
1, 132205, Note_off_c, 0, 72, 0
1, 133200, Note_on_c, 0, 91, 80
1, 133351, Note_off_c, 0, 91, 0
1, 133360, Note_on_c, 0, 79, 80
1, 133511, Note_off_c, 0, 79, 0
1, 133520, Note_on_c, 0, 91, 80
1, 133671, Note_off_c, 0, 91, 0
1, 133680, Note_on_c, 0, 79, 80
1, 133955, Note_off_c, 0, 79, 0
1, 136080, Note_on_c, 0, 76, 80
1, 136080, Note_on_c, 0, 84, 80
1, 136319, Note_off_c, 0, 76, 0
1, 136319, Note_off_c, 0, 84, 0
1, 137040, Note_on_c, 0, 77, 80
1, 137040, Note_on_c, 0, 84, 80
1, 137279, Note_off_c, 0, 77, 0
1, 137279, Note_off_c, 0, 84, 0
1, 138000, Note_on_c, 0, 78, 80
1, 138000, Note_on_c, 0, 84, 80
1, 138239, Note_off_c, 0, 78, 0
1, 138239, Note_off_c, 0, 84, 0
1, 138768, Note_on_c, 0, 79, 96
1, 138768, Note_on_c, 0, 84, 96
1, 138959, Note_off_c, 0, 79, 0
1, 138959, Note_off_c, 0, 84, 0
1, 139248, Note_on_c, 0, 90, 80
1, 139429, Note_off_c, 0, 90, 0
1, 139440, Note_on_c, 0, 91, 80
1, 139715, Note_off_c, 0, 91, 0
1, 139728, Note_on_c, 0, 88, 96
1, 139728, Note_on_c, 0, 96, 96
1, 139919, Note_off_c, 0, 88, 0
1, 139919, Note_off_c, 0, 96, 0
1, 140029, End_track
2, 0, Start_track
2, 0, Key_signature, 0, "major"
2, 0, MIDI_port, 0
2, 2160, Note_on_c, 0, 51, 80
2, 2160, Note_on_c, 0, 60, 80
2, 3983, Note_off_c, 0, 51, 0
2, 3983, Note_off_c, 0, 60, 0
2, 4080, Note_on_c, 0, 55, 80
2, 4080, Note_on_c, 0, 59, 80
2, 4080, Note_on_c, 0, 60, 80
2, 4080, Note_on_c, 0, 64, 80
2, 4319, Note_off_c, 0, 55, 0
2, 4319, Note_off_c, 0, 59, 0
2, 4319, Note_off_c, 0, 60, 0
2, 4319, Note_off_c, 0, 64, 0
2, 4848, Note_on_c, 0, 55, 80
2, 4848, Note_on_c, 0, 59, 80
2, 4848, Note_on_c, 0, 60, 80
2, 4848, Note_on_c, 0, 64, 80
2, 5941, Note_off_c, 0, 55, 0
2, 5941, Note_off_c, 0, 59, 0
2, 5941, Note_off_c, 0, 60, 0
2, 5941, Note_off_c, 0, 64, 0
2, 6000, Note_on_c, 0, 55, 80
2, 6000, Note_on_c, 0, 59, 80
2, 6000, Note_on_c, 0, 61, 80
2, 6000, Note_on_c, 0, 64, 80
2, 6239, Note_off_c, 0, 55, 0
2, 6239, Note_off_c, 0, 59, 0
2, 6239, Note_off_c, 0, 61, 0
2, 6239, Note_off_c, 0, 64, 0
2, 6768, Note_on_c, 0, 55, 80
2, 6768, Note_on_c, 0, 59, 80
2, 6768, Note_on_c, 0, 61, 80
2, 6768, Note_on_c, 0, 64, 80
2, 7861, Note_off_c, 0, 55, 0
2, 7861, Note_off_c, 0, 59, 0
2, 7861, Note_off_c, 0, 61, 0
2, 7861, Note_off_c, 0, 64, 0
2, 8688, Note_on_c, 0, 50, 80
2, 8688, Note_on_c, 0, 53, 80
2, 8688, Note_on_c, 0, 57, 80
2, 9781, Note_off_c, 0, 50, 0
2, 9781, Note_off_c, 0, 53, 0
2, 9781, Note_off_c, 0, 57, 0
2, 9840, Note_on_c, 0, 43, 80
2, 9840, Note_on_c, 0, 53, 80
2, 10079, Note_off_c, 0, 43, 0
2, 10079, Note_off_c, 0, 53, 0
2, 10320, Note_on_c, 0, 43, 80
2, 10320, Note_on_c, 0, 53, 80
2, 10559, Note_off_c, 0, 43, 0
2, 10559, Note_off_c, 0, 53, 0
2, 12048, Note_on_c, 0, 36, 80
2, 12685, Note_off_c, 0, 36, 0
2, 12720, Note_on_c, 0, 40, 80
2, 12959, Note_off_c, 0, 40, 0
2, 13680, Note_on_c, 0, 52, 80
2, 13751, Note_off_c, 0, 52, 0
2, 13752, Note_on_c, 0, 45, 80
2, 13752, Note_on_c, 0, 55, 80
2, 13954, Note_off_c, 0, 45, 0
2, 13954, Note_off_c, 0, 55, 0
2, 14160, Note_on_c, 0, 45, 80
2, 14160, Note_on_c, 0, 55, 80
2, 14399, Note_off_c, 0, 45, 0
2, 14399, Note_off_c, 0, 55, 0
2, 14640, Note_on_c, 0, 45, 80
2, 14640, Note_on_c, 0, 55, 80
2, 14879, Note_off_c, 0, 45, 0
2, 14879, Note_off_c, 0, 55, 0
2, 15120, Note_on_c, 0, 45, 80
2, 15120, Note_on_c, 0, 55, 80
2, 15359, Note_off_c, 0, 45, 0
2, 15359, Note_off_c, 0, 55, 0
2, 15600, Note_on_c, 0, 50, 80
2, 15600, Note_on_c, 0, 60, 80
2, 15839, Note_off_c, 0, 50, 0
2, 15839, Note_off_c, 0, 60, 0
2, 16080, Note_on_c, 0, 50, 80
2, 16080, Note_on_c, 0, 60, 80
2, 16319, Note_off_c, 0, 50, 0
2, 16319, Note_off_c, 0, 60, 0
2, 16560, Note_on_c, 0, 50, 80
2, 16560, Note_on_c, 0, 60, 80
2, 16799, Note_off_c, 0, 50, 0
2, 16799, Note_off_c, 0, 60, 0
2, 17040, Note_on_c, 0, 50, 80
2, 17040, Note_on_c, 0, 60, 80
2, 17279, Note_off_c, 0, 50, 0
2, 17279, Note_off_c, 0, 60, 0
2, 17520, Note_on_c, 0, 43, 80
2, 17520, Note_on_c, 0, 53, 80
2, 17759, Note_off_c, 0, 43, 0
2, 17759, Note_off_c, 0, 53, 0
2, 18000, Note_on_c, 0, 43, 80
2, 18000, Note_on_c, 0, 53, 80
2, 18239, Note_off_c, 0, 43, 0
2, 18239, Note_off_c, 0, 53, 0
2, 18480, Note_on_c, 0, 43, 80
2, 18480, Note_on_c, 0, 53, 80
2, 18719, Note_off_c, 0, 43, 0
2, 18719, Note_off_c, 0, 53, 0
2, 18960, Note_on_c, 0, 43, 80
2, 18960, Note_on_c, 0, 53, 80
2, 19199, Note_off_c, 0, 43, 0
2, 19199, Note_off_c, 0, 53, 0
2, 19440, Note_on_c, 0, 48, 80
2, 19440, Note_on_c, 0, 59, 80
2, 19679, Note_off_c, 0, 48, 0
2, 19679, Note_off_c, 0, 59, 0
2, 19920, Note_on_c, 0, 48, 80
2, 19920, Note_on_c, 0, 59, 80
2, 20159, Note_off_c, 0, 48, 0
2, 20159, Note_off_c, 0, 59, 0
2, 20400, Note_on_c, 0, 48, 80
2, 20400, Note_on_c, 0, 58, 80
2, 20639, Note_off_c, 0, 48, 0
2, 20639, Note_off_c, 0, 58, 0
2, 20880, Note_on_c, 0, 48, 80
2, 20880, Note_on_c, 0, 58, 80
2, 21119, Note_off_c, 0, 48, 0
2, 21119, Note_off_c, 0, 58, 0
2, 21360, Note_on_c, 0, 53, 80
2, 21360, Note_on_c, 0, 57, 80
2, 21815, Note_off_c, 0, 53, 0
2, 21815, Note_off_c, 0, 57, 0
2, 21840, Note_on_c, 0, 53, 80
2, 21840, Note_on_c, 0, 57, 80
2, 22295, Note_off_c, 0, 53, 0
2, 22295, Note_off_c, 0, 57, 0
2, 22320, Note_on_c, 0, 53, 80
2, 22320, Note_on_c, 0, 57, 80
2, 22775, Note_off_c, 0, 53, 0
2, 22775, Note_off_c, 0, 57, 0
2, 22800, Note_on_c, 0, 53, 80
2, 22800, Note_on_c, 0, 57, 80
2, 23255, Note_off_c, 0, 53, 0
2, 23255, Note_off_c, 0, 57, 0
2, 23280, Note_on_c, 0, 47, 80
2, 23280, Note_on_c, 0, 57, 80
2, 23735, Note_off_c, 0, 47, 0
2, 23735, Note_off_c, 0, 57, 0
2, 23760, Note_on_c, 0, 47, 80
2, 23760, Note_on_c, 0, 57, 80
2, 24215, Note_off_c, 0, 47, 0
2, 24215, Note_off_c, 0, 57, 0
2, 24240, Note_on_c, 0, 47, 80
2, 24240, Note_on_c, 0, 57, 80
2, 24695, Note_off_c, 0, 47, 0
2, 24695, Note_off_c, 0, 57, 0
2, 24720, Note_on_c, 0, 47, 80
2, 24720, Note_on_c, 0, 57, 80
2, 25175, Note_off_c, 0, 47, 0
2, 25175, Note_off_c, 0, 57, 0
2, 25200, Note_on_c, 0, 52, 80
2, 25200, Note_on_c, 0, 56, 80
2, 25655, Note_off_c, 0, 52, 0
2, 25655, Note_off_c, 0, 56, 0
2, 25680, Note_on_c, 0, 52, 80
2, 25680, Note_on_c, 0, 56, 80
2, 26135, Note_off_c, 0, 52, 0
2, 26135, Note_off_c, 0, 56, 0
2, 26160, Note_on_c, 0, 52, 80
2, 26160, Note_on_c, 0, 56, 80
2, 26615, Note_off_c, 0, 52, 0
2, 26615, Note_off_c, 0, 56, 0
2, 26640, Note_on_c, 0, 52, 80
2, 26640, Note_on_c, 0, 56, 80
2, 27095, Note_off_c, 0, 52, 0
2, 27095, Note_off_c, 0, 56, 0
2, 27120, Note_on_c, 0, 45, 80
2, 27120, Note_on_c, 0, 55, 80
2, 27575, Note_off_c, 0, 45, 0
2, 27575, Note_off_c, 0, 55, 0
2, 27600, Note_on_c, 0, 45, 80
2, 27600, Note_on_c, 0, 55, 80
2, 28055, Note_off_c, 0, 45, 0
2, 28055, Note_off_c, 0, 55, 0
2, 28080, Note_on_c, 0, 50, 80
2, 28080, Note_on_c, 0, 54, 80
2, 28535, Note_off_c, 0, 50, 0
2, 28535, Note_off_c, 0, 54, 0
2, 28560, Note_on_c, 0, 50, 80
2, 28560, Note_on_c, 0, 54, 80
2, 29015, Note_off_c, 0, 50, 0
2, 29015, Note_off_c, 0, 54, 0
2, 29040, Note_on_c, 0, 50, 80
2, 29040, Note_on_c, 0, 60, 80
2, 29495, Note_off_c, 0, 50, 0
2, 29495, Note_off_c, 0, 60, 0
2, 29520, Note_on_c, 0, 50, 80
2, 29520, Note_on_c, 0, 60, 80
2, 29975, Note_off_c, 0, 50, 0
2, 29975, Note_off_c, 0, 60, 0
2, 30000, Note_on_c, 0, 50, 80
2, 30000, Note_on_c, 0, 60, 80
2, 30455, Note_off_c, 0, 50, 0
2, 30455, Note_off_c, 0, 60, 0
2, 30480, Note_on_c, 0, 50, 80
2, 30480, Note_on_c, 0, 60, 80
2, 30935, Note_off_c, 0, 50, 0
2, 30935, Note_off_c, 0, 60, 0
2, 30960, Note_on_c, 0, 51, 80
2, 30960, Note_on_c, 0, 60, 80
2, 31415, Note_off_c, 0, 51, 0
2, 31415, Note_off_c, 0, 60, 0
2, 31440, Note_on_c, 0, 51, 80
2, 31440, Note_on_c, 0, 60, 80
2, 31895, Note_off_c, 0, 51, 0
2, 31895, Note_off_c, 0, 60, 0
2, 31920, Note_on_c, 0, 51, 80
2, 31920, Note_on_c, 0, 60, 80
2, 32375, Note_off_c, 0, 51, 0
2, 32375, Note_off_c, 0, 60, 0
2, 32400, Note_on_c, 0, 51, 80
2, 32400, Note_on_c, 0, 60, 80
2, 32855, Note_off_c, 0, 51, 0
2, 32855, Note_off_c, 0, 60, 0
2, 32880, Note_on_c, 0, 52, 80
2, 32880, Note_on_c, 0, 62, 80
2, 33335, Note_off_c, 0, 52, 0
2, 33335, Note_off_c, 0, 62, 0
2, 33360, Note_on_c, 0, 52, 80
2, 33360, Note_on_c, 0, 62, 80
2, 33815, Note_off_c, 0, 52, 0
2, 33815, Note_off_c, 0, 62, 0
2, 33840, Note_on_c, 0, 52, 80
2, 33840, Note_on_c, 0, 62, 80
2, 34295, Note_off_c, 0, 52, 0
2, 34295, Note_off_c, 0, 62, 0
2, 34320, Note_on_c, 0, 52, 80
2, 34320, Note_on_c, 0, 62, 80
2, 34775, Note_off_c, 0, 52, 0
2, 34775, Note_off_c, 0, 62, 0
2, 34800, Note_on_c, 0, 57, 80
2, 34800, Note_on_c, 0, 61, 80
2, 35255, Note_off_c, 0, 57, 0
2, 35255, Note_off_c, 0, 61, 0
2, 35280, Note_on_c, 0, 57, 80
2, 35280, Note_on_c, 0, 61, 80
2, 35735, Note_off_c, 0, 57, 0
2, 35735, Note_off_c, 0, 61, 0
2, 35760, Note_on_c, 0, 57, 80
2, 35760, Note_on_c, 0, 61, 80
2, 36215, Note_off_c, 0, 57, 0
2, 36215, Note_off_c, 0, 61, 0
2, 36240, Note_on_c, 0, 57, 80
2, 36240, Note_on_c, 0, 61, 80
2, 36695, Note_off_c, 0, 57, 0
2, 36695, Note_off_c, 0, 61, 0
2, 36720, Note_on_c, 0, 50, 80
2, 36720, Note_on_c, 0, 57, 80
2, 37175, Note_off_c, 0, 50, 0
2, 37175, Note_off_c, 0, 57, 0
2, 37200, Note_on_c, 0, 50, 80
2, 37200, Note_on_c, 0, 60, 80
2, 37655, Note_off_c, 0, 50, 0
2, 37655, Note_off_c, 0, 60, 0
2, 37680, Note_on_c, 0, 50, 80
2, 37680, Note_on_c, 0, 60, 80
2, 38135, Note_off_c, 0, 50, 0
2, 38135, Note_off_c, 0, 60, 0
2, 38160, Note_on_c, 0, 50, 80
2, 38160, Note_on_c, 0, 60, 80
2, 38615, Note_off_c, 0, 50, 0
2, 38615, Note_off_c, 0, 60, 0
2, 38640, Note_on_c, 0, 43, 80
2, 38640, Note_on_c, 0, 53, 80
2, 38879, Note_off_c, 0, 43, 0
2, 38879, Note_off_c, 0, 53, 0
2, 39120, Note_on_c, 0, 43, 80
2, 39120, Note_on_c, 0, 53, 80
2, 39359, Note_off_c, 0, 43, 0
2, 39359, Note_off_c, 0, 53, 0
2, 40560, Note_on_c, 0, 48, 80
2, 40799, Note_off_c, 0, 48, 0
2, 41328, Note_on_c, 0, 48, 80
2, 42421, Note_off_c, 0, 48, 0
2, 42480, Note_on_c, 0, 47, 80
2, 42480, Note_on_c, 0, 57, 80
2, 42935, Note_off_c, 0, 47, 0
2, 42935, Note_off_c, 0, 57, 0
2, 42960, Note_on_c, 0, 47, 80
2, 43073, Note_off_c, 0, 47, 0
2, 43080, Note_on_c, 0, 57, 80
2, 43193, Note_off_c, 0, 57, 0
2, 43440, Note_on_c, 0, 52, 80
2, 43440, Note_on_c, 0, 56, 80
2, 43895, Note_off_c, 0, 52, 0
2, 43895, Note_off_c, 0, 56, 0
2, 44400, Note_on_c, 0, 33, 80
2, 44855, Note_off_c, 0, 33, 0
2, 44880, Note_on_c, 0, 35, 80
2, 45335, Note_off_c, 0, 35, 0
2, 45360, Note_on_c, 0, 36, 80
2, 45815, Note_off_c, 0, 36, 0
2, 45840, Note_on_c, 0, 40, 80
2, 46295, Note_off_c, 0, 40, 0
2, 46320, Note_on_c, 0, 38, 80
2, 46775, Note_off_c, 0, 38, 0
2, 46800, Note_on_c, 0, 40, 80
2, 47255, Note_off_c, 0, 40, 0
2, 47280, Note_on_c, 0, 41, 80
2, 47735, Note_off_c, 0, 41, 0
2, 47760, Note_on_c, 0, 45, 80
2, 48215, Note_off_c, 0, 45, 0
2, 48240, Note_on_c, 0, 43, 80
2, 48695, Note_off_c, 0, 43, 0
2, 48720, Note_on_c, 0, 45, 80
2, 49175, Note_off_c, 0, 45, 0
2, 49200, Note_on_c, 0, 47, 80
2, 49655, Note_off_c, 0, 47, 0
2, 49680, Note_on_c, 0, 50, 80
2, 50135, Note_off_c, 0, 50, 0
2, 50160, Note_on_c, 0, 48, 80
2, 50435, Note_off_c, 0, 48, 0
2, 50448, Note_on_c, 0, 36, 80
2, 50629, Note_off_c, 0, 36, 0
2, 50640, Note_on_c, 0, 38, 80
2, 51095, Note_off_c, 0, 38, 0
2, 51120, Note_on_c, 0, 40, 80
2, 51575, Note_off_c, 0, 40, 0
2, 51600, Note_on_c, 0, 43, 80
2, 51875, Note_off_c, 0, 43, 0
2, 51888, Note_on_c, 0, 42, 80
2, 52069, Note_off_c, 0, 42, 0
2, 52080, Note_on_c, 0, 41, 80
2, 52535, Note_off_c, 0, 41, 0
2, 52560, Note_on_c, 0, 43, 80
2, 53015, Note_off_c, 0, 43, 0
2, 53040, Note_on_c, 0, 45, 80
2, 53495, Note_off_c, 0, 45, 0
2, 53520, Note_on_c, 0, 48, 80
2, 53975, Note_off_c, 0, 48, 0
2, 54000, Note_on_c, 0, 47, 80
2, 54455, Note_off_c, 0, 47, 0
2, 54480, Note_on_c, 0, 48, 80
2, 54935, Note_off_c, 0, 48, 0
2, 54960, Note_on_c, 0, 50, 80
2, 55415, Note_off_c, 0, 50, 0
2, 55440, Note_on_c, 0, 53, 80
2, 55895, Note_off_c, 0, 53, 0
2, 55920, Note_on_c, 0, 52, 80
2, 56375, Note_off_c, 0, 52, 0
2, 56400, Note_on_c, 0, 51, 80
2, 56855, Note_off_c, 0, 51, 0
2, 56880, Note_on_c, 0, 50, 80
2, 57335, Note_off_c, 0, 50, 0
2, 57360, Note_on_c, 0, 47, 80
2, 57815, Note_off_c, 0, 47, 0
2, 57840, Note_on_c, 0, 45, 80
2, 58115, Note_off_c, 0, 45, 0
2, 58128, Note_on_c, 0, 45, 80
2, 58309, Note_off_c, 0, 45, 0
2, 58320, Note_on_c, 0, 47, 80
2, 58775, Note_off_c, 0, 47, 0
2, 58800, Note_on_c, 0, 48, 80
2, 59255, Note_off_c, 0, 48, 0
2, 59280, Note_on_c, 0, 49, 80
2, 59735, Note_off_c, 0, 49, 0
2, 59760, Note_on_c, 0, 50, 80
2, 60215, Note_off_c, 0, 50, 0
2, 60240, Note_on_c, 0, 38, 80
2, 60695, Note_off_c, 0, 38, 0
2, 60720, Note_on_c, 0, 41, 80
2, 61175, Note_off_c, 0, 41, 0
2, 61200, Note_on_c, 0, 45, 80
2, 61655, Note_off_c, 0, 45, 0
2, 61680, Note_on_c, 0, 39, 80
2, 62135, Note_off_c, 0, 39, 0
2, 62160, Note_on_c, 0, 42, 80
2, 62615, Note_off_c, 0, 42, 0
2, 62640, Note_on_c, 0, 45, 80
2, 63095, Note_off_c, 0, 45, 0
2, 63120, Note_on_c, 0, 48, 80
2, 63575, Note_off_c, 0, 48, 0
2, 63600, Note_on_c, 0, 40, 80
2, 64055, Note_off_c, 0, 40, 0
2, 64080, Note_on_c, 0, 43, 80
2, 64535, Note_off_c, 0, 43, 0
2, 64560, Note_on_c, 0, 46, 80
2, 65015, Note_off_c, 0, 46, 0
2, 65040, Note_on_c, 0, 50, 80
2, 65495, Note_off_c, 0, 50, 0
2, 65520, Note_on_c, 0, 49, 80
2, 65795, Note_off_c, 0, 49, 0
2, 65808, Note_on_c, 0, 49, 80
2, 65989, Note_off_c, 0, 49, 0
2, 66000, Note_on_c, 0, 46, 80
2, 66455, Note_off_c, 0, 46, 0
2, 66480, Note_on_c, 0, 45, 80
2, 66755, Note_off_c, 0, 45, 0
2, 66768, Note_on_c, 0, 45, 80
2, 66949, Note_off_c, 0, 45, 0
2, 66960, Note_on_c, 0, 43, 80
2, 67415, Note_off_c, 0, 43, 0
2, 68688, Note_on_c, 0, 53, 80
2, 68688, Note_on_c, 0, 57, 80
2, 68688, Note_on_c, 0, 60, 80
2, 68688, Note_on_c, 0, 62, 80
2, 69325, Note_off_c, 0, 53, 0
2, 69325, Note_off_c, 0, 57, 0
2, 69325, Note_off_c, 0, 60, 0
2, 69325, Note_off_c, 0, 62, 0
2, 69360, Note_on_c, 0, 54, 80
2, 69360, Note_on_c, 0, 57, 80
2, 69360, Note_on_c, 0, 60, 80
2, 69360, Note_on_c, 0, 63, 80
2, 69635, Note_off_c, 0, 54, 0
2, 69635, Note_off_c, 0, 57, 0
2, 69635, Note_off_c, 0, 60, 0
2, 69635, Note_off_c, 0, 63, 0
2, 72528, Note_on_c, 0, 55, 80
2, 72528, Note_on_c, 0, 59, 80
2, 72528, Note_on_c, 0, 60, 80
2, 72528, Note_on_c, 0, 64, 80
2, 73165, Note_off_c, 0, 55, 0
2, 73165, Note_off_c, 0, 59, 0
2, 73165, Note_off_c, 0, 60, 0
2, 73165, Note_off_c, 0, 64, 0
2, 73200, Note_on_c, 0, 55, 80
2, 73200, Note_on_c, 0, 59, 80
2, 73200, Note_on_c, 0, 61, 80
2, 73200, Note_on_c, 0, 64, 80
2, 73475, Note_off_c, 0, 55, 0
2, 73475, Note_off_c, 0, 59, 0
2, 73475, Note_off_c, 0, 61, 0
2, 73475, Note_off_c, 0, 64, 0
2, 75120, Note_on_c, 0, 38, 80
2, 75575, Note_off_c, 0, 38, 0
2, 75600, Note_on_c, 0, 40, 80
2, 76055, Note_off_c, 0, 40, 0
2, 76080, Note_on_c, 0, 41, 80
2, 76535, Note_off_c, 0, 41, 0
2, 76560, Note_on_c, 0, 42, 80
2, 77015, Note_off_c, 0, 42, 0
2, 77040, Note_on_c, 0, 43, 80
2, 77040, Note_on_c, 0, 53, 80
2, 77279, Note_off_c, 0, 43, 0
2, 77279, Note_off_c, 0, 53, 0
2, 77520, Note_on_c, 0, 43, 80
2, 77520, Note_on_c, 0, 53, 80
2, 77759, Note_off_c, 0, 43, 0
2, 77759, Note_off_c, 0, 53, 0
2, 78000, Note_on_c, 0, 45, 80
2, 78059, Note_off_c, 0, 45, 0
2, 78060, Note_on_c, 0, 46, 80
2, 78119, Note_off_c, 0, 46, 0
2, 78120, Note_on_c, 0, 47, 80
2, 78257, Note_off_c, 0, 47, 0
2, 78288, Note_on_c, 0, 48, 80
2, 78469, Note_off_c, 0, 48, 0
2, 78480, Note_on_c, 0, 50, 80
2, 78755, Note_off_c, 0, 50, 0
2, 78768, Note_on_c, 0, 48, 80
2, 78949, Note_off_c, 0, 48, 0
2, 79248, Note_on_c, 0, 48, 80
2, 79885, Note_off_c, 0, 48, 0
2, 79920, Note_on_c, 0, 52, 80
2, 80159, Note_off_c, 0, 52, 0
2, 80688, Note_on_c, 0, 45, 80
2, 81325, Note_off_c, 0, 45, 0
2, 81360, Note_on_c, 0, 50, 80
2, 81599, Note_off_c, 0, 50, 0
2, 82128, Note_on_c, 0, 43, 80
2, 82765, Note_off_c, 0, 43, 0
2, 83280, Note_on_c, 0, 36, 80
2, 83519, Note_off_c, 0, 36, 0
2, 83760, Note_on_c, 0, 36, 80
2, 83999, Note_off_c, 0, 36, 0
2, 85008, Note_on_c, 0, 59, 80
2, 85008, Note_on_c, 0, 60, 80
2, 85008, Note_on_c, 0, 64, 80
2, 85189, Note_off_c, 0, 59, 0
2, 85189, Note_off_c, 0, 60, 0
2, 85189, Note_off_c, 0, 64, 0
2, 85968, Note_on_c, 0, 59, 80
2, 85968, Note_on_c, 0, 61, 80
2, 85968, Note_on_c, 0, 64, 80
2, 86149, Note_off_c, 0, 59, 0
2, 86149, Note_off_c, 0, 61, 0
2, 86149, Note_off_c, 0, 64, 0
2, 86928, Note_on_c, 0, 53, 80
2, 86928, Note_on_c, 0, 57, 80
2, 86928, Note_on_c, 0, 64, 80
2, 87109, Note_off_c, 0, 53, 0
2, 87109, Note_off_c, 0, 57, 0
2, 87109, Note_off_c, 0, 64, 0
2, 87888, Note_on_c, 0, 54, 80
2, 87888, Note_on_c, 0, 57, 80
2, 87888, Note_on_c, 0, 63, 80
2, 88069, Note_off_c, 0, 54, 0
2, 88069, Note_off_c, 0, 57, 0
2, 88069, Note_off_c, 0, 63, 0
2, 88848, Note_on_c, 0, 53, 80
2, 88848, Note_on_c, 0, 56, 80
2, 88848, Note_on_c, 0, 63, 80
2, 89029, Note_off_c, 0, 53, 0
2, 89029, Note_off_c, 0, 56, 0
2, 89029, Note_off_c, 0, 63, 0
2, 89808, Note_on_c, 0, 53, 80
2, 89808, Note_on_c, 0, 56, 80
2, 89808, Note_on_c, 0, 62, 80
2, 89989, Note_off_c, 0, 53, 0
2, 89989, Note_off_c, 0, 56, 0
2, 89989, Note_off_c, 0, 62, 0
2, 90960, Note_on_c, 0, 52, 80
2, 90960, Note_on_c, 0, 56, 80
2, 90960, Note_on_c, 0, 61, 80
2, 91235, Note_off_c, 0, 52, 0
2, 91235, Note_off_c, 0, 56, 0
2, 91235, Note_off_c, 0, 61, 0
2, 91248, Note_on_c, 0, 55, 80
2, 91248, Note_on_c, 0, 57, 80
2, 91248, Note_on_c, 0, 60, 80
2, 91885, Note_off_c, 0, 55, 0
2, 91885, Note_off_c, 0, 57, 0
2, 91885, Note_off_c, 0, 60, 0
2, 92400, Note_on_c, 0, 41, 80
2, 92855, Note_off_c, 0, 41, 0
2, 92880, Note_on_c, 0, 40, 80
2, 93335, Note_off_c, 0, 40, 0
2, 93360, Note_on_c, 0, 38, 80
2, 93815, Note_off_c, 0, 38, 0
2, 93840, Note_on_c, 0, 36, 80
2, 94295, Note_off_c, 0, 36, 0
2, 94320, Note_on_c, 0, 35, 80
2, 94595, Note_off_c, 0, 35, 0
2, 94608, Note_on_c, 0, 35, 80
2, 94789, Note_off_c, 0, 35, 0
2, 94800, Note_on_c, 0, 36, 80
2, 95255, Note_off_c, 0, 36, 0
2, 95280, Note_on_c, 0, 38, 80
2, 95735, Note_off_c, 0, 38, 0
2, 95760, Note_on_c, 0, 41, 80
2, 96215, Note_off_c, 0, 41, 0
2, 96240, Note_on_c, 0, 40, 80
2, 96695, Note_off_c, 0, 40, 0
2, 96720, Note_on_c, 0, 39, 80
2, 97175, Note_off_c, 0, 39, 0
2, 97200, Note_on_c, 0, 38, 80
2, 97655, Note_off_c, 0, 38, 0
2, 97680, Note_on_c, 0, 35, 80
2, 98135, Note_off_c, 0, 35, 0
2, 98160, Note_on_c, 0, 33, 80
2, 98435, Note_off_c, 0, 33, 0
2, 98448, Note_on_c, 0, 33, 80
2, 98629, Note_off_c, 0, 33, 0
2, 98640, Note_on_c, 0, 35, 80
2, 99095, Note_off_c, 0, 35, 0
2, 99120, Note_on_c, 0, 36, 80
2, 99575, Note_off_c, 0, 36, 0
2, 99600, Note_on_c, 0, 33, 80
2, 100055, Note_off_c, 0, 33, 0
2, 100080, Note_on_c, 0, 45, 80
2, 100806, Note_off_c, 0, 45, 0
2, 100848, Note_on_c, 0, 55, 80
2, 101941, Note_off_c, 0, 55, 0
2, 102000, Note_on_c, 0, 50, 80
2, 102726, Note_off_c, 0, 50, 0
2, 102768, Note_on_c, 0, 41, 80
2, 103405, Note_off_c, 0, 41, 0
2, 103728, Note_on_c, 0, 42, 80
2, 103909, Note_off_c, 0, 42, 0
2, 103920, Note_on_c, 0, 43, 80
2, 104646, Note_off_c, 0, 43, 0
2, 104688, Note_on_c, 0, 31, 80
2, 105781, Note_off_c, 0, 31, 0
2, 105840, Note_on_c, 0, 36, 80
2, 106295, Note_off_c, 0, 36, 0
2, 108048, Note_on_c, 0, 53, 80
2, 108229, Note_off_c, 0, 53, 0
2, 108240, Note_on_c, 0, 52, 80
2, 108695, Note_off_c, 0, 52, 0
2, 108720, Note_on_c, 0, 53, 80
2, 109175, Note_off_c, 0, 53, 0
2, 109680, Note_on_c, 0, 40, 80
2, 110135, Note_off_c, 0, 40, 0
2, 110448, Note_on_c, 0, 42, 80
2, 110629, Note_off_c, 0, 42, 0
2, 110640, Note_on_c, 0, 44, 80
2, 111095, Note_off_c, 0, 44, 0
2, 111600, Note_on_c, 0, 47, 80
2, 112055, Note_off_c, 0, 47, 0
2, 112848, Note_on_c, 0, 40, 80
2, 113485, Note_off_c, 0, 40, 0
2, 113520, Note_on_c, 0, 45, 80
2, 114246, Note_off_c, 0, 45, 0
2, 114288, Note_on_c, 0, 47, 80
2, 114469, Note_off_c, 0, 47, 0
2, 114480, Note_on_c, 0, 48, 80
2, 114935, Note_off_c, 0, 48, 0
2, 114960, Note_on_c, 0, 49, 80
2, 115415, Note_off_c, 0, 49, 0
2, 115440, Note_on_c, 0, 50, 80
2, 116351, Note_off_c, 0, 50, 0
2, 116688, Note_on_c, 0, 40, 80
2, 116869, Note_off_c, 0, 40, 0
2, 116880, Note_on_c, 0, 41, 80
2, 117155, Note_off_c, 0, 41, 0
2, 117168, Note_on_c, 0, 42, 80
2, 117349, Note_off_c, 0, 42, 0
2, 117360, Note_on_c, 0, 43, 80
2, 118086, Note_off_c, 0, 43, 0
2, 118128, Note_on_c, 0, 53, 80
2, 118309, Note_off_c, 0, 53, 0
2, 119568, Note_on_c, 0, 40, 80
2, 119749, Note_off_c, 0, 40, 0
2, 120048, Note_on_c, 0, 43, 80
2, 120229, Note_off_c, 0, 43, 0
2, 120240, Note_on_c, 0, 46, 80
2, 120515, Note_off_c, 0, 46, 0
2, 120720, Note_on_c, 0, 44, 80
2, 120995, Note_off_c, 0, 44, 0
2, 121008, Note_on_c, 0, 45, 80
2, 121465, Note_off_c, 0, 45, 0
2, 121488, Note_on_c, 0, 47, 80
2, 121669, Note_off_c, 0, 47, 0
2, 121680, Note_on_c, 0, 49, 80
2, 122135, Note_off_c, 0, 49, 0
2, 123888, Note_on_c, 0, 53, 80
2, 123888, Note_on_c, 0, 60, 80
2, 123888, Note_on_c, 0, 62, 80
2, 124525, Note_off_c, 0, 53, 0
2, 124525, Note_off_c, 0, 60, 0
2, 124525, Note_off_c, 0, 62, 0
2, 124848, Note_on_c, 0, 54, 80
2, 124848, Note_on_c, 0, 60, 80
2, 124848, Note_on_c, 0, 63, 80
2, 125029, Note_off_c, 0, 54, 0
2, 125029, Note_off_c, 0, 60, 0
2, 125029, Note_off_c, 0, 63, 0
2, 126000, Note_on_c, 0, 50, 80
2, 126275, Note_off_c, 0, 50, 0
2, 126480, Note_on_c, 0, 44, 80
2, 126755, Note_off_c, 0, 44, 0
2, 126960, Note_on_c, 0, 43, 80
2, 127415, Note_off_c, 0, 43, 0
2, 127728, Note_on_c, 0, 59, 80
2, 127728, Note_on_c, 0, 60, 80
2, 127728, Note_on_c, 0, 64, 80
2, 128365, Note_off_c, 0, 59, 0
2, 128365, Note_off_c, 0, 60, 0
2, 128365, Note_off_c, 0, 64, 0
2, 128688, Note_on_c, 0, 59, 80
2, 128688, Note_on_c, 0, 61, 80
2, 128688, Note_on_c, 0, 64, 80
2, 128869, Note_off_c, 0, 59, 0
2, 128869, Note_off_c, 0, 61, 0
2, 128869, Note_off_c, 0, 64, 0
2, 129168, Note_on_c, 0, 59, 80
2, 129168, Note_on_c, 0, 61, 80
2, 129168, Note_on_c, 0, 64, 80
2, 129349, Note_off_c, 0, 59, 0
2, 129349, Note_off_c, 0, 61, 0
2, 129349, Note_off_c, 0, 64, 0
2, 130800, Note_on_c, 0, 38, 80
2, 131255, Note_off_c, 0, 38, 0
2, 131280, Note_on_c, 0, 40, 80
2, 131735, Note_off_c, 0, 40, 0
2, 131760, Note_on_c, 0, 41, 80
2, 132215, Note_off_c, 0, 41, 0
2, 132240, Note_on_c, 0, 42, 80
2, 132695, Note_off_c, 0, 42, 0
2, 132720, Note_on_c, 0, 43, 80
2, 132959, Note_off_c, 0, 43, 0
2, 134640, Note_on_c, 0, 57, 80
2, 134699, Note_off_c, 0, 57, 0
2, 134700, Note_on_c, 0, 58, 80
2, 134759, Note_off_c, 0, 58, 0
2, 134760, Note_on_c, 0, 59, 80
2, 134897, Note_off_c, 0, 59, 0
2, 134928, Note_on_c, 0, 60, 80
2, 135109, Note_off_c, 0, 60, 0
2, 135120, Note_on_c, 0, 62, 80
2, 135395, Note_off_c, 0, 62, 0
2, 135408, Note_on_c, 0, 60, 80
2, 135589, Note_off_c, 0, 60, 0
2, 136560, Note_on_c, 0, 48, 80
2, 136799, Note_off_c, 0, 48, 0
2, 137520, Note_on_c, 0, 50, 80
2, 137759, Note_off_c, 0, 50, 0
2, 138480, Note_on_c, 0, 51, 80
2, 138935, Note_off_c, 0, 51, 0
2, 139248, Note_on_c, 0, 42, 80
2, 139429, Note_off_c, 0, 42, 0
2, 139440, Note_on_c, 0, 43, 80
2, 139715, Note_off_c, 0, 43, 0
2, 139728, Note_on_c, 0, 36, 96
2, 139919, Note_off_c, 0, 36, 0
2, 140029, End_track
0, 0, End_of_file
